<?xml version="1.0" encoding="utf-8"?>
<!-- Generator: Adobe Illustrator 25.0.1, SVG Export Plug-In . SVG Version: 6.00 Build 0)  -->
<svg version="1.1" id="Layer_1" xmlns="http://www.w3.org/2000/svg" xmlns:xlink="http://www.w3.org/1999/xlink" x="0px" y="0px"
	 viewBox="0 0 94 141" style="enable-background:new 0 0 94 141;" xml:space="preserve">
<style type="text/css">
	.st0{fill:#F25C05;}
</style>
<path class="st0" d="M71.4,44.1h-49c-3,0-5.5,2.5-5.5,5.7v41.5c0,3.1,2.5,5.7,5.5,5.7h49c3.1,0,5.7-2.5,5.7-5.7V49.8
	C77.1,46.7,74.7,44.1,71.4,44.1z M30,88.4c0,0.5-0.4,0.9-0.9,0.9h-5.7c-0.5,0-0.9-0.4-0.9-0.9v-5.7c0-0.5,0.4-0.9,0.9-0.9h5.5
	c0.5,0,0.9,0.4,0.9,0.9L30,88.4z M30,73.3c0,0.5-0.4,0.9-0.9,0.9h-5.7c-0.5,0-0.9-0.4-0.9-0.9v-5.7c0-0.5,0.4-0.9,0.9-0.9h5.5
	c0.5,0,0.9,0.4,0.9,0.9v5.7H30z M30,58.3c0,0.5-0.4,0.9-0.9,0.9h-5.7c-0.5,0-0.9-0.4-0.9-0.9v-5.7c0-0.5,0.4-0.9,0.9-0.9h5.5
	c0.5,0,0.9,0.4,0.9,0.9L30,58.3z M58.3,87.5c0,1-0.8,1.9-1.9,1.9H37.5c-1,0-1.9-0.8-1.9-1.9V76.2c0-1,0.8-1.9,1.9-1.9h18.8
	c1,0,1.9,0.8,1.9,1.9L58.3,87.5L58.3,87.5z M58.3,64.8c0,1-0.8,1.9-1.9,1.9H37.5c-1,0-1.9-0.8-1.9-1.9V53.5c0-1,0.8-1.9,1.9-1.9
	h18.8c1,0,1.9,0.8,1.9,1.9L58.3,64.8L58.3,64.8z M71.4,88.4c0,0.5-0.4,0.9-0.9,0.9H65c-0.5,0-0.8-0.4-0.8-0.9v-5.7
	c0-0.5,0.4-0.9,0.9-0.9h5.5c0.5,0,0.9,0.4,0.9,0.9L71.4,88.4L71.4,88.4z M71.4,73.3c0,0.5-0.4,0.9-0.9,0.9H65
	c-0.5,0-0.9-0.4-0.9-0.9v-5.7c0-0.5,0.4-0.9,0.9-0.9h5.5c0.5,0,0.9,0.4,0.9,0.9V73.3z M71.4,58.3c0,0.5-0.4,0.9-0.9,0.9H65
	c-0.5,0-0.9-0.4-0.9-0.9v-5.7c0-0.5,0.4-0.9,0.8-0.9h5.5c0.5,0,0.9,0.4,0.9,0.9L71.4,58.3L71.4,58.3z"/>
</svg>
