<?xml version="1.0" encoding="utf-8"?>
<!-- Generator: Adobe Illustrator 25.0.1, SVG Export Plug-In . SVG Version: 6.00 Build 0)  -->
<svg version="1.1" id="Layer_1" xmlns="http://www.w3.org/2000/svg" xmlns:xlink="http://www.w3.org/1999/xlink" x="0px" y="0px"
	 viewBox="0 0 94 141" style="enable-background:new 0 0 94 141;" xml:space="preserve">
<style type="text/css">
	.st0{fill:#F25C05;}
</style>
<path class="st0" d="M66.8,90.3H27.1c-1.7,0-3.2,1.5-3.2,3.2s1.5,3.4,3.2,3.4h39.5c1.9,0,3.4-1.5,3.4-3.3S68.6,90.3,66.8,90.3z
	 M75,44.1H19c-2.7,0-4.9,2.2-4.9,4.9v33c0,2.7,2.2,4.9,4.9,4.9h56c2.7,0,4.9-2.2,4.9-4.9V49.1C79.9,46.4,77.7,44.1,75,44.1z
	 M73.4,80.4H20.6V50.7h52.7L73.4,80.4L73.4,80.4z"/>
</svg>
