<?xml version="1.0" encoding="utf-8"?>
<!-- Generator: Adobe Illustrator 25.0.1, SVG Export Plug-In . SVG Version: 6.00 Build 0)  -->
<svg version="1.1" id="Layer_1" xmlns="http://www.w3.org/2000/svg" xmlns:xlink="http://www.w3.org/1999/xlink" x="0px" y="0px"
	 viewBox="0 0 94 141" style="enable-background:new 0 0 94 141;" xml:space="preserve">
<style type="text/css">
	.st0{fill:#F25C05;}
</style>
<g>
	<path class="st0" d="M224.1,1v139h-92V1H224.1 M225.1,0h-94v141h94V0L225.1,0z"/>
</g>
<g>
	<path class="st0" d="M93,1v139H1V1H93 M94,0H0v141h94V0L94,0z"/>
</g>
<path class="st0" d="M-83.6,73.8c8.2,0,14.8-6.6,14.8-14.8s-6.6-14.8-14.8-14.8c-8.2,0-14.8,6.6-14.8,14.8S-91.8,73.8-83.6,73.8z
	 M-73.8,77.1h-19.7c-9.1,0-16.5,7.4-16.5,16.5c0,1.8,1.5,3.3,3.2,3.3h46.2c1.8,0,3.2-1.5,3.2-3.3C-57.3,84.4-64.7,77.1-73.8,77.1z"
	/>
<g>
	<path class="st0" d="M-37.2,1v139h-92V1H-37.2 M-36.2,0h-94v141h94V0L-36.2,0z"/>
</g>
<path class="st0" d="M71.4,44.1h-49c-3,0-5.5,2.5-5.5,5.7v41.5c0,3.1,2.5,5.7,5.5,5.7h49c3.1,0,5.7-2.5,5.7-5.7V49.8
	C77.1,46.7,74.7,44.1,71.4,44.1z M30,88.4c0,0.5-0.4,0.9-0.9,0.9h-5.7c-0.5,0-0.9-0.4-0.9-0.9v-5.7c0-0.5,0.4-0.9,0.9-0.9h5.5
	c0.5,0,0.9,0.4,0.9,0.9L30,88.4z M30,73.3c0,0.5-0.4,0.9-0.9,0.9h-5.7c-0.5,0-0.9-0.4-0.9-0.9v-5.7c0-0.5,0.4-0.9,0.9-0.9h5.5
	c0.5,0,0.9,0.4,0.9,0.9v5.7H30z M30,58.3c0,0.5-0.4,0.9-0.9,0.9h-5.7c-0.5,0-0.9-0.4-0.9-0.9v-5.7c0-0.5,0.4-0.9,0.9-0.9h5.5
	c0.5,0,0.9,0.4,0.9,0.9L30,58.3z M58.3,87.5c0,1-0.8,1.9-1.9,1.9H37.5c-1,0-1.9-0.8-1.9-1.9V76.2c0-1,0.8-1.9,1.9-1.9h18.8
	c1,0,1.9,0.8,1.9,1.9V87.5z M58.3,64.8c0,1-0.8,1.9-1.9,1.9H37.5c-1,0-1.9-0.8-1.9-1.9V53.5c0-1,0.8-1.9,1.9-1.9h18.8
	c1,0,1.9,0.8,1.9,1.9V64.8z M71.4,88.4c0,0.5-0.4,0.9-0.9,0.9H65c-0.5,0-0.8-0.4-0.8-0.9v-5.7c0-0.5,0.4-0.9,0.9-0.9h5.5
	c0.5,0,0.9,0.4,0.9,0.9v5.7H71.4z M71.4,73.3c0,0.5-0.4,0.9-0.9,0.9H65c-0.5,0-0.9-0.4-0.9-0.9v-5.7c0-0.5,0.4-0.9,0.9-0.9h5.5
	c0.5,0,0.9,0.4,0.9,0.9V73.3z M71.4,58.3c0,0.5-0.4,0.9-0.9,0.9H65c-0.5,0-0.9-0.4-0.9-0.9v-5.7c0-0.5,0.4-0.9,0.8-0.9h5.5
	c0.5,0,0.9,0.4,0.9,0.9v5.7H71.4z"/>
<path class="st0" d="M197.9,90.3h-39.6c-1.7,0-3.2,1.5-3.2,3.2c0,1.7,1.5,3.4,3.2,3.4h39.5c1.9,0,3.4-1.5,3.4-3.3
	S199.7,90.3,197.9,90.3z M206.1,44.1h-56c-2.7,0-4.9,2.2-4.9,4.9V82c0,2.7,2.2,4.9,4.9,4.9h56c2.7,0,4.9-2.2,4.9-4.9V49.1
	C211.1,46.4,208.8,44.1,206.1,44.1z M204.5,80.4h-52.7V50.7h52.7V80.4z"/>
</svg>
